<svg width="117" height="117" viewBox="0 0 117 117" fill="none" xmlns="http://www.w3.org/2000/svg">
<circle cx="58.5" cy="58.5" r="53.5" fill="#52BCFE" stroke="#596ACE" stroke-width="10"/>
<path d="M38.375 85V32.6364H60.9773C64.8636 32.6364 68.2642 33.4034 71.179 34.9375C74.0938 36.4716 76.3608 38.6278 77.9801 41.4062C79.5994 44.1847 80.4091 47.4318 80.4091 51.1477C80.4091 54.8977 79.5739 58.1449 77.9034 60.8892C76.25 63.6335 73.9233 65.7472 70.9233 67.2301C67.9403 68.7131 64.4545 69.4545 60.4659 69.4545H46.9659V58.4091H57.6023C59.2727 58.4091 60.696 58.1193 61.8722 57.5398C63.0653 56.9432 63.9773 56.0994 64.608 55.0085C65.2557 53.9176 65.5795 52.6307 65.5795 51.1477C65.5795 49.6477 65.2557 48.3693 64.608 47.3125C63.9773 46.2386 63.0653 45.4205 61.8722 44.858C60.696 44.2784 59.2727 43.9886 57.6023 43.9886H52.5909V85H38.375Z" fill="#596ACE"/>
</svg>
