<svg width="283" height="72" viewBox="0 0 283 72" fill="none" xmlns="http://www.w3.org/2000/svg">
<path d="M65.1803 20.3021C65.4003 20.3021 65.4003 20.3021 65.6193 20.3021L62.3204 7.54453C61.4405 3.8037 57.4796 1.60379 53.9598 2.70374L5.12366 15.6832C1.38381 16.5632 -0.8161 20.523 0.283856 24.0429L4.46369 39.8823V30.4226C4.46369 24.7048 9.08351 20.085 14.8033 20.085H65.1803V20.3021Z" fill="#719EBF"/>
<path d="M65.1803 23.8219H14.5823C10.8424 23.8219 7.76355 26.9028 7.76355 30.6417V62.7584C7.76355 66.5002 10.8434 69.5782 14.5823 69.5782H65.1803C68.9201 69.5782 71.999 66.4973 71.999 62.7584V30.6436C72.001 26.9018 68.9201 23.8219 65.1803 23.8219ZM67.3812 62.7614C67.3812 64.0823 66.2822 64.9603 65.1823 64.9603H14.5843C13.2643 64.9603 12.3853 63.8613 12.3853 62.7604V54.6227H67.6022V62.7604L67.3812 62.7614ZM67.3812 38.7823H12.3834V30.6436C12.3834 29.3227 13.4833 28.4437 14.5823 28.4437H65.1803C66.5012 28.4437 67.3792 29.5437 67.3792 30.6436L67.3812 38.7823Z" fill="#719EBF"/>
<path d="M89.8125 66V22.3636H108.648C111.886 22.3636 114.72 23.0028 117.149 24.2812C119.578 25.5597 121.467 27.3565 122.817 29.6719C124.166 31.9872 124.841 34.6932 124.841 37.7898C124.841 40.9148 124.145 43.6207 122.753 45.9077C121.375 48.1946 119.436 49.956 116.936 51.1918C114.45 52.4276 111.545 53.0455 108.222 53.0455H96.9716V43.8409H105.835C107.227 43.8409 108.413 43.5994 109.393 43.1165C110.388 42.6193 111.148 41.9162 111.673 41.0071C112.213 40.098 112.483 39.0256 112.483 37.7898C112.483 36.5398 112.213 35.4744 111.673 34.5938C111.148 33.6989 110.388 33.017 109.393 32.5483C108.413 32.0653 107.227 31.8239 105.835 31.8239H101.659V66H89.8125ZM171.46 44.1818C171.46 49.0398 170.516 53.1378 168.626 56.4759C166.737 59.7997 164.188 62.321 160.977 64.0398C157.767 65.7443 154.188 66.5966 150.239 66.5966C146.261 66.5966 142.668 65.7372 139.457 64.0185C136.261 62.2855 133.719 59.7571 131.83 56.4332C129.955 53.0952 129.017 49.0114 129.017 44.1818C129.017 39.3239 129.955 35.233 131.83 31.9091C133.719 28.571 136.261 26.0497 139.457 24.3452C142.668 22.6264 146.261 21.767 150.239 21.767C154.188 21.767 157.767 22.6264 160.977 24.3452C164.188 26.0497 166.737 28.571 168.626 31.9091C170.516 35.233 171.46 39.3239 171.46 44.1818ZM159.273 44.1818C159.273 41.5682 158.925 39.3665 158.229 37.5767C157.547 35.7727 156.531 34.4091 155.182 33.4858C153.847 32.5483 152.199 32.0795 150.239 32.0795C148.278 32.0795 146.624 32.5483 145.274 33.4858C143.939 34.4091 142.923 35.7727 142.227 37.5767C141.545 39.3665 141.205 41.5682 141.205 44.1818C141.205 46.7955 141.545 49.0043 142.227 50.8082C142.923 52.598 143.939 53.9616 145.274 54.8991C146.624 55.8224 148.278 56.2841 150.239 56.2841C152.199 56.2841 153.847 55.8224 155.182 54.8991C156.531 53.9616 157.547 52.598 158.229 50.8082C158.925 49.0043 159.273 46.7955 159.273 44.1818ZM200.464 36C200.35 34.5795 199.818 33.4716 198.866 32.6761C197.929 31.8807 196.501 31.483 194.583 31.483C193.362 31.483 192.36 31.6321 191.579 31.9304C190.812 32.2145 190.244 32.6051 189.875 33.1023C189.505 33.5994 189.314 34.1676 189.299 34.8068C189.271 35.3324 189.363 35.8082 189.576 36.2344C189.804 36.6463 190.159 37.0227 190.642 37.3636C191.125 37.6903 191.743 37.9886 192.495 38.2585C193.248 38.5284 194.143 38.7699 195.18 38.983L198.76 39.75C201.174 40.2614 203.241 40.9361 204.96 41.7741C206.679 42.6122 208.085 43.5994 209.179 44.7358C210.272 45.858 211.075 47.1222 211.586 48.5284C212.112 49.9347 212.382 51.4687 212.396 53.1307C212.382 56 211.664 58.429 210.244 60.4176C208.824 62.4062 206.792 63.919 204.15 64.956C201.522 65.9929 198.362 66.5114 194.669 66.5114C190.876 66.5114 187.566 65.9503 184.74 64.8281C181.927 63.706 179.74 61.9801 178.177 59.6506C176.629 57.3068 175.848 54.3097 175.833 50.6591H187.083C187.154 51.9943 187.488 53.1165 188.085 54.0256C188.681 54.9347 189.52 55.6236 190.599 56.0923C191.693 56.5611 192.993 56.7955 194.498 56.7955C195.762 56.7955 196.821 56.6392 197.673 56.3267C198.525 56.0142 199.172 55.581 199.612 55.027C200.052 54.473 200.279 53.8409 200.294 53.1307C200.279 52.4631 200.059 51.8807 199.633 51.3835C199.221 50.8722 198.539 50.4176 197.588 50.0199C196.636 49.608 195.35 49.2244 193.731 48.8693L189.385 47.9318C185.521 47.0937 182.474 45.6946 180.244 43.7344C178.028 41.7599 176.927 39.0682 176.941 35.6591C176.927 32.8892 177.666 30.4673 179.157 28.3935C180.663 26.3054 182.744 24.679 185.4 23.5142C188.071 22.3494 191.132 21.767 194.583 21.767C198.106 21.767 201.153 22.3565 203.724 23.5355C206.295 24.7145 208.277 26.3764 209.669 28.5213C211.075 30.652 211.785 33.1449 211.799 36H200.464Z" fill="white"/>
<path d="M237.227 47.5455V65H233.273L226.966 55.8295H226.864V65H222.125V47.5455H226.148L232.352 56.6818H232.489V47.5455H237.227ZM256.378 56.2727C256.378 58.2159 256 59.8551 255.244 61.1903C254.489 62.5199 253.469 63.5284 252.185 64.2159C250.901 64.8977 249.469 65.2386 247.889 65.2386C246.298 65.2386 244.861 64.8949 243.577 64.2074C242.298 63.5142 241.281 62.5028 240.526 61.1733C239.776 59.8381 239.401 58.2045 239.401 56.2727C239.401 54.3295 239.776 52.6932 240.526 51.3636C241.281 50.0284 242.298 49.0199 243.577 48.3381C244.861 47.6506 246.298 47.3068 247.889 47.3068C249.469 47.3068 250.901 47.6506 252.185 48.3381C253.469 49.0199 254.489 50.0284 255.244 51.3636C256 52.6932 256.378 54.3295 256.378 56.2727ZM251.503 56.2727C251.503 55.2273 251.364 54.3466 251.085 53.6307C250.812 52.9091 250.406 52.3636 249.866 51.9943C249.332 51.6193 248.673 51.4318 247.889 51.4318C247.105 51.4318 246.443 51.6193 245.903 51.9943C245.369 52.3636 244.963 52.9091 244.685 53.6307C244.412 54.3466 244.276 55.2273 244.276 56.2727C244.276 57.3182 244.412 58.2017 244.685 58.9233C244.963 59.6392 245.369 60.1847 245.903 60.5597C246.443 60.929 247.105 61.1136 247.889 61.1136C248.673 61.1136 249.332 60.929 249.866 60.5597C250.406 60.1847 250.812 59.6392 251.085 58.9233C251.364 58.2017 251.503 57.3182 251.503 56.2727ZM261.901 65L256.753 47.5455H262.037L264.423 58.2841H264.56L267.389 47.5455H271.548L274.378 58.3182H274.514L276.901 47.5455H282.185L277.037 65H272.503L269.537 55.25H269.401L266.435 65H261.901Z" fill="#719EBF"/>
</svg>
