<svg width="420" height="230" viewBox="0 0 420 230" fill="none" xmlns="http://www.w3.org/2000/svg">
<rect width="420" height="230" rx="12" fill="url(#paint0_linear_38_813)"/>
<path d="M47.56 176.06V186.36C47.56 187.507 47.2067 188.427 46.5 189.12C45.7933 189.8 44.86 190.14 43.7 190.14C42.5267 190.14 41.5867 189.793 40.88 189.1C40.1733 188.393 39.82 187.433 39.82 186.22H41.64C41.6533 186.9 41.8267 187.453 42.16 187.88C42.5067 188.307 43.02 188.52 43.7 188.52C44.38 188.52 44.8867 188.32 45.22 187.92C45.5533 187.507 45.72 186.987 45.72 186.36V176.06H47.56ZM57.4655 190.14C56.1721 190.14 54.9921 189.84 53.9255 189.24C52.8588 188.627 52.0121 187.78 51.3855 186.7C50.7721 185.607 50.4655 184.38 50.4655 183.02C50.4655 181.66 50.7721 180.44 51.3855 179.36C52.0121 178.267 52.8588 177.42 53.9255 176.82C54.9921 176.207 56.1721 175.9 57.4655 175.9C58.7721 175.9 59.9588 176.207 61.0255 176.82C62.0921 177.42 62.9321 178.26 63.5455 179.34C64.1588 180.42 64.4655 181.647 64.4655 183.02C64.4655 184.393 64.1588 185.62 63.5455 186.7C62.9321 187.78 62.0921 188.627 61.0255 189.24C59.9588 189.84 58.7721 190.14 57.4655 190.14ZM57.4655 188.56C58.4388 188.56 59.3121 188.333 60.0855 187.88C60.8721 187.427 61.4855 186.78 61.9255 185.94C62.3788 185.1 62.6055 184.127 62.6055 183.02C62.6055 181.9 62.3788 180.927 61.9255 180.1C61.4855 179.26 60.8788 178.613 60.1055 178.16C59.3321 177.707 58.4521 177.48 57.4655 177.48C56.4788 177.48 55.5988 177.707 54.8255 178.16C54.0521 178.613 53.4388 179.26 52.9855 180.1C52.5455 180.927 52.3255 181.9 52.3255 183.02C52.3255 184.127 52.5455 185.1 52.9855 185.94C53.4388 186.78 54.0521 187.427 54.8255 187.88C55.6121 188.333 56.4921 188.56 57.4655 188.56ZM77.6081 176.06V190H75.7881V183.68H68.6881V190H66.8681V176.06H68.6881V182.18H75.7881V176.06H77.6081ZM91.6758 190H89.8558L82.5358 178.9V190H80.7158V176.04H82.5358L89.8558 187.12V176.04H91.6758V190ZM104.45 176.06C105.97 176.06 107.284 176.347 108.39 176.92C109.51 177.48 110.364 178.287 110.95 179.34C111.55 180.393 111.85 181.633 111.85 183.06C111.85 184.487 111.55 185.727 110.95 186.78C110.364 187.82 109.51 188.62 108.39 189.18C107.284 189.727 105.97 190 104.45 190H100.11V176.06H104.45ZM104.45 188.5C106.25 188.5 107.624 188.027 108.57 187.08C109.517 186.12 109.99 184.78 109.99 183.06C109.99 181.327 109.51 179.973 108.55 179C107.604 178.027 106.237 177.54 104.45 177.54H101.93V188.5H104.45ZM120.571 190.14C119.278 190.14 118.098 189.84 117.031 189.24C115.964 188.627 115.118 187.78 114.491 186.7C113.878 185.607 113.571 184.38 113.571 183.02C113.571 181.66 113.878 180.44 114.491 179.36C115.118 178.267 115.964 177.42 117.031 176.82C118.098 176.207 119.278 175.9 120.571 175.9C121.878 175.9 123.064 176.207 124.131 176.82C125.198 177.42 126.038 178.26 126.651 179.34C127.264 180.42 127.571 181.647 127.571 183.02C127.571 184.393 127.264 185.62 126.651 186.7C126.038 187.78 125.198 188.627 124.131 189.24C123.064 189.84 121.878 190.14 120.571 190.14ZM120.571 188.56C121.544 188.56 122.418 188.333 123.191 187.88C123.978 187.427 124.591 186.78 125.031 185.94C125.484 185.1 125.711 184.127 125.711 183.02C125.711 181.9 125.484 180.927 125.031 180.1C124.591 179.26 123.984 178.613 123.211 178.16C122.438 177.707 121.558 177.48 120.571 177.48C119.584 177.48 118.704 177.707 117.931 178.16C117.158 178.613 116.544 179.26 116.091 180.1C115.651 180.927 115.431 181.9 115.431 183.02C115.431 184.127 115.651 185.1 116.091 185.94C116.544 186.78 117.158 187.427 117.931 187.88C118.718 188.333 119.598 188.56 120.571 188.56ZM131.794 177.54V182.2H136.874V183.7H131.794V188.5H137.474V190H129.974V176.04H137.474V177.54H131.794Z" fill="white"/>
<path d="M320.142 152.242L316.46 162H314.99L311.308 152.242H312.666L315.732 160.656L318.798 152.242H320.142ZM321.063 158.136C321.063 157.352 321.222 156.666 321.539 156.078C321.856 155.481 322.29 155.019 322.841 154.692C323.401 154.365 324.022 154.202 324.703 154.202C325.375 154.202 325.958 154.347 326.453 154.636C326.948 154.925 327.316 155.289 327.559 155.728V154.328H328.847V162H327.559V160.572C327.307 161.02 326.929 161.393 326.425 161.692C325.93 161.981 325.352 162.126 324.689 162.126C324.008 162.126 323.392 161.958 322.841 161.622C322.29 161.286 321.856 160.815 321.539 160.208C321.222 159.601 321.063 158.911 321.063 158.136ZM327.559 158.15C327.559 157.571 327.442 157.067 327.209 156.638C326.976 156.209 326.658 155.882 326.257 155.658C325.865 155.425 325.431 155.308 324.955 155.308C324.479 155.308 324.045 155.42 323.653 155.644C323.261 155.868 322.948 156.195 322.715 156.624C322.482 157.053 322.365 157.557 322.365 158.136C322.365 158.724 322.482 159.237 322.715 159.676C322.948 160.105 323.261 160.437 323.653 160.67C324.045 160.894 324.479 161.006 324.955 161.006C325.431 161.006 325.865 160.894 326.257 160.67C326.658 160.437 326.976 160.105 327.209 159.676C327.442 159.237 327.559 158.729 327.559 158.15ZM332.274 151.64V162H331V151.64H332.274ZM335.103 153.082C334.861 153.082 334.655 152.998 334.487 152.83C334.319 152.662 334.235 152.457 334.235 152.214C334.235 151.971 334.319 151.766 334.487 151.598C334.655 151.43 334.861 151.346 335.103 151.346C335.337 151.346 335.533 151.43 335.691 151.598C335.859 151.766 335.943 151.971 335.943 152.214C335.943 152.457 335.859 152.662 335.691 152.83C335.533 152.998 335.337 153.082 335.103 153.082ZM335.719 154.328V162H334.445V154.328H335.719ZM337.415 158.136C337.415 157.352 337.573 156.666 337.891 156.078C338.208 155.481 338.642 155.019 339.193 154.692C339.753 154.365 340.378 154.202 341.069 154.202C341.666 154.202 342.221 154.342 342.735 154.622C343.248 154.893 343.64 155.252 343.911 155.7V151.64H345.199V162H343.911V160.558C343.659 161.015 343.285 161.393 342.791 161.692C342.296 161.981 341.717 162.126 341.055 162.126C340.373 162.126 339.753 161.958 339.193 161.622C338.642 161.286 338.208 160.815 337.891 160.208C337.573 159.601 337.415 158.911 337.415 158.136ZM343.911 158.15C343.911 157.571 343.794 157.067 343.561 156.638C343.327 156.209 343.01 155.882 342.609 155.658C342.217 155.425 341.783 155.308 341.307 155.308C340.831 155.308 340.397 155.42 340.005 155.644C339.613 155.868 339.3 156.195 339.067 156.624C338.833 157.053 338.717 157.557 338.717 158.136C338.717 158.724 338.833 159.237 339.067 159.676C339.3 160.105 339.613 160.437 340.005 160.67C340.397 160.894 340.831 161.006 341.307 161.006C341.783 161.006 342.217 160.894 342.609 160.67C343.01 160.437 343.327 160.105 343.561 159.676C343.794 159.237 343.911 158.729 343.911 158.15ZM357.09 152.242V153.278H354.43V162H353.156V153.278H350.482V152.242H357.09ZM362.466 154.188C363.045 154.188 363.567 154.314 364.034 154.566C364.501 154.809 364.865 155.177 365.126 155.672C365.397 156.167 365.532 156.769 365.532 157.478V162H364.272V157.66C364.272 156.895 364.081 156.311 363.698 155.91C363.315 155.499 362.793 155.294 362.13 155.294C361.458 155.294 360.921 155.504 360.52 155.924C360.128 156.344 359.932 156.955 359.932 157.758V162H358.658V151.64H359.932V155.42C360.184 155.028 360.529 154.725 360.968 154.51C361.416 154.295 361.915 154.188 362.466 154.188ZM368.887 155.574C369.111 155.135 369.428 154.795 369.839 154.552C370.259 154.309 370.768 154.188 371.365 154.188V155.504H371.029C369.601 155.504 368.887 156.279 368.887 157.828V162H367.613V154.328H368.887V155.574ZM379.64 154.328V162H378.366V160.866C378.123 161.258 377.782 161.566 377.344 161.79C376.914 162.005 376.438 162.112 375.916 162.112C375.318 162.112 374.782 161.991 374.306 161.748C373.83 161.496 373.452 161.123 373.172 160.628C372.901 160.133 372.766 159.531 372.766 158.822V154.328H374.026V158.654C374.026 159.41 374.217 159.993 374.6 160.404C374.982 160.805 375.505 161.006 376.168 161.006C376.849 161.006 377.386 160.796 377.778 160.376C378.17 159.956 378.366 159.345 378.366 158.542V154.328H379.64Z" fill="white"/>
<path d="M311.848 186.016C311.848 184.171 312.179 182.725 312.84 181.68C313.512 180.635 314.621 180.112 316.168 180.112C317.715 180.112 318.819 180.635 319.48 181.68C320.152 182.725 320.488 184.171 320.488 186.016C320.488 187.872 320.152 189.328 319.48 190.384C318.819 191.44 317.715 191.968 316.168 191.968C314.621 191.968 313.512 191.44 312.84 190.384C312.179 189.328 311.848 187.872 311.848 186.016ZM318.28 186.016C318.28 185.227 318.227 184.565 318.12 184.032C318.024 183.488 317.821 183.045 317.512 182.704C317.213 182.363 316.765 182.192 316.168 182.192C315.571 182.192 315.117 182.363 314.808 182.704C314.509 183.045 314.307 183.488 314.2 184.032C314.104 184.565 314.056 185.227 314.056 186.016C314.056 186.827 314.104 187.509 314.2 188.064C314.296 188.608 314.499 189.051 314.808 189.392C315.117 189.723 315.571 189.888 316.168 189.888C316.765 189.888 317.219 189.723 317.528 189.392C317.837 189.051 318.04 188.608 318.136 188.064C318.232 187.509 318.28 186.827 318.28 186.016ZM330.032 182.272H324.848V185.008C325.072 184.731 325.392 184.507 325.808 184.336C326.224 184.155 326.666 184.064 327.136 184.064C327.989 184.064 328.688 184.251 329.232 184.624C329.776 184.997 330.17 185.477 330.416 186.064C330.661 186.64 330.784 187.259 330.784 187.92C330.784 189.147 330.432 190.133 329.728 190.88C329.034 191.627 328.042 192 326.752 192C325.536 192 324.565 191.696 323.84 191.088C323.114 190.48 322.704 189.685 322.608 188.704H324.784C324.88 189.131 325.093 189.472 325.424 189.728C325.765 189.984 326.197 190.112 326.72 190.112C327.349 190.112 327.824 189.915 328.144 189.52C328.464 189.125 328.624 188.603 328.624 187.952C328.624 187.291 328.458 186.789 328.128 186.448C327.808 186.096 327.333 185.92 326.704 185.92C326.256 185.92 325.882 186.032 325.584 186.256C325.285 186.48 325.072 186.779 324.944 187.152H322.8V180.304H330.032V182.272ZM338.745 176.848L334.425 194.896H332.233L336.553 176.848H338.745ZM340.974 189.472C341.998 188.619 342.814 187.909 343.422 187.344C344.03 186.768 344.537 186.171 344.942 185.552C345.347 184.933 345.55 184.325 345.55 183.728C345.55 183.184 345.422 182.757 345.166 182.448C344.91 182.139 344.515 181.984 343.982 181.984C343.449 181.984 343.038 182.165 342.75 182.528C342.462 182.88 342.313 183.365 342.302 183.984H340.126C340.169 182.704 340.547 181.733 341.262 181.072C341.987 180.411 342.905 180.08 344.014 180.08C345.23 180.08 346.163 180.405 346.814 181.056C347.465 181.696 347.79 182.544 347.79 183.6C347.79 184.432 347.566 185.227 347.118 185.984C346.67 186.741 346.158 187.403 345.582 187.968C345.006 188.523 344.254 189.195 343.326 189.984H348.046V191.84H340.142V190.176L340.974 189.472ZM355.505 183.248C355.399 182.8 355.212 182.464 354.945 182.24C354.689 182.016 354.316 181.904 353.825 181.904C353.089 181.904 352.545 182.203 352.193 182.8C351.852 183.387 351.676 184.347 351.665 185.68C351.921 185.253 352.295 184.923 352.785 184.688C353.276 184.443 353.809 184.32 354.385 184.32C355.079 184.32 355.692 184.469 356.225 184.768C356.759 185.067 357.175 185.504 357.473 186.08C357.772 186.645 357.921 187.328 357.921 188.128C357.921 188.885 357.767 189.563 357.457 190.16C357.159 190.747 356.716 191.205 356.129 191.536C355.543 191.867 354.844 192.032 354.033 192.032C352.924 192.032 352.049 191.787 351.409 191.296C350.78 190.805 350.337 190.123 350.081 189.248C349.836 188.363 349.713 187.275 349.713 185.984C349.713 184.032 350.049 182.56 350.721 181.568C351.393 180.565 352.455 180.064 353.905 180.064C355.025 180.064 355.895 180.368 356.513 180.976C357.132 181.584 357.489 182.341 357.585 183.248H355.505ZM353.873 186.16C353.308 186.16 352.833 186.325 352.449 186.656C352.065 186.987 351.873 187.467 351.873 188.096C351.873 188.725 352.049 189.221 352.401 189.584C352.764 189.947 353.271 190.128 353.921 190.128C354.497 190.128 354.951 189.952 355.281 189.6C355.623 189.248 355.793 188.773 355.793 188.176C355.793 187.557 355.628 187.067 355.297 186.704C354.977 186.341 354.503 186.16 353.873 186.16Z" fill="white"/>
<path d="M43.032 49.224H48.888V51H40.848V34.272H43.032V49.224ZM56.9434 51.216C55.7114 51.216 54.5914 50.936 53.5834 50.376C52.5914 49.816 51.8074 49.024 51.2314 48C50.6714 46.96 50.3914 45.76 50.3914 44.4C50.3914 43.056 50.6794 41.872 51.2554 40.848C51.8474 39.808 52.6474 39.016 53.6554 38.472C54.6634 37.912 55.7914 37.632 57.0394 37.632C58.2874 37.632 59.4154 37.912 60.4234 38.472C61.4314 39.016 62.2234 39.8 62.7994 40.824C63.3914 41.848 63.6874 43.04 63.6874 44.4C63.6874 45.76 63.3834 46.96 62.7754 48C62.1834 49.024 61.3754 49.816 60.3514 50.376C59.3274 50.936 58.1914 51.216 56.9434 51.216ZM56.9434 49.296C57.7274 49.296 58.4634 49.112 59.1514 48.744C59.8394 48.376 60.3914 47.824 60.8074 47.088C61.2394 46.352 61.4554 45.456 61.4554 44.4C61.4554 43.344 61.2474 42.448 60.8314 41.712C60.4154 40.976 59.8714 40.432 59.1994 40.08C58.5274 39.712 57.7994 39.528 57.0154 39.528C56.2154 39.528 55.4794 39.712 54.8074 40.08C54.1514 40.432 53.6234 40.976 53.2234 41.712C52.8234 42.448 52.6234 43.344 52.6234 44.4C52.6234 45.472 52.8154 46.376 53.1994 47.112C53.5994 47.848 54.1274 48.4 54.7834 48.768C55.4394 49.12 56.1594 49.296 56.9434 49.296ZM77.8869 37.848L69.9669 57.192H67.7109L70.3029 50.856L64.9989 37.848H67.4229L71.5509 48.504L75.6309 37.848H77.8869ZM79.2664 44.376C79.2664 43.032 79.5384 41.856 80.0824 40.848C80.6264 39.824 81.3704 39.032 82.3144 38.472C83.2744 37.912 84.3384 37.632 85.5064 37.632C86.6584 37.632 87.6584 37.88 88.5064 38.376C89.3544 38.872 89.9864 39.496 90.4024 40.248V37.848H92.6104V51H90.4024V48.552C89.9704 49.32 89.3224 49.96 88.4584 50.472C87.6104 50.968 86.6184 51.216 85.4824 51.216C84.3144 51.216 83.2584 50.928 82.3144 50.352C81.3704 49.776 80.6264 48.968 80.0824 47.928C79.5384 46.888 79.2664 45.704 79.2664 44.376ZM90.4024 44.4C90.4024 43.408 90.2024 42.544 89.8024 41.808C89.4024 41.072 88.8584 40.512 88.1704 40.128C87.4984 39.728 86.7544 39.528 85.9384 39.528C85.1224 39.528 84.3784 39.72 83.7064 40.104C83.0344 40.488 82.4984 41.048 82.0984 41.784C81.6984 42.52 81.4984 43.384 81.4984 44.376C81.4984 45.384 81.6984 46.264 82.0984 47.016C82.4984 47.752 83.0344 48.32 83.7064 48.72C84.3784 49.104 85.1224 49.296 85.9384 49.296C86.7544 49.296 87.4984 49.104 88.1704 48.72C88.8584 48.32 89.4024 47.752 89.8024 47.016C90.2024 46.264 90.4024 45.392 90.4024 44.4ZM98.4851 33.24V51H96.3011V33.24H98.4851ZM104.871 39.648V47.4C104.871 48.04 105.007 48.496 105.279 48.768C105.551 49.024 106.023 49.152 106.695 49.152H108.303V51H106.335C105.119 51 104.207 50.72 103.599 50.16C102.991 49.6 102.687 48.68 102.687 47.4V39.648H100.983V37.848H102.687V34.536H104.871V37.848H108.303V39.648H104.871ZM122.278 37.848L114.358 57.192H112.102L114.694 50.856L109.39 37.848H111.814L115.942 48.504L120.022 37.848H122.278ZM130.055 42.624C130.055 40.992 130.423 39.528 131.159 38.232C131.895 36.92 132.895 35.896 134.159 35.16C135.439 34.424 136.855 34.056 138.407 34.056C140.231 34.056 141.823 34.496 143.183 35.376C144.543 36.256 145.535 37.504 146.159 39.12H143.543C143.079 38.112 142.407 37.336 141.527 36.792C140.663 36.248 139.623 35.976 138.407 35.976C137.239 35.976 136.191 36.248 135.263 36.792C134.335 37.336 133.607 38.112 133.079 39.12C132.551 40.112 132.287 41.28 132.287 42.624C132.287 43.952 132.551 45.12 133.079 46.128C133.607 47.12 134.335 47.888 135.263 48.432C136.191 48.976 137.239 49.248 138.407 49.248C139.623 49.248 140.663 48.984 141.527 48.456C142.407 47.912 143.079 47.136 143.543 46.128H146.159C145.535 47.728 144.543 48.968 143.183 49.848C141.823 50.712 140.231 51.144 138.407 51.144C136.855 51.144 135.439 50.784 134.159 50.064C132.895 49.328 131.895 48.312 131.159 47.016C130.423 45.72 130.055 44.256 130.055 42.624ZM148.595 44.376C148.595 43.032 148.867 41.856 149.411 40.848C149.955 39.824 150.699 39.032 151.643 38.472C152.603 37.912 153.667 37.632 154.835 37.632C155.987 37.632 156.987 37.88 157.835 38.376C158.683 38.872 159.315 39.496 159.731 40.248V37.848H161.939V51H159.731V48.552C159.299 49.32 158.651 49.96 157.787 50.472C156.939 50.968 155.947 51.216 154.811 51.216C153.643 51.216 152.587 50.928 151.643 50.352C150.699 49.776 149.955 48.968 149.411 47.928C148.867 46.888 148.595 45.704 148.595 44.376ZM159.731 44.4C159.731 43.408 159.531 42.544 159.131 41.808C158.731 41.072 158.187 40.512 157.499 40.128C156.827 39.728 156.083 39.528 155.267 39.528C154.451 39.528 153.707 39.72 153.035 40.104C152.363 40.488 151.827 41.048 151.427 41.784C151.027 42.52 150.827 43.384 150.827 44.376C150.827 45.384 151.027 46.264 151.427 47.016C151.827 47.752 152.363 48.32 153.035 48.72C153.707 49.104 154.451 49.296 155.267 49.296C156.083 49.296 156.827 49.104 157.499 48.72C158.187 48.32 158.731 47.752 159.131 47.016C159.531 46.264 159.731 45.392 159.731 44.4ZM167.813 39.984C168.197 39.232 168.741 38.648 169.445 38.232C170.165 37.816 171.037 37.608 172.061 37.608V39.864H171.485C169.037 39.864 167.813 41.192 167.813 43.848V51H165.629V37.848H167.813V39.984ZM173.766 44.376C173.766 43.032 174.038 41.856 174.582 40.848C175.126 39.824 175.87 39.032 176.814 38.472C177.774 37.912 178.846 37.632 180.03 37.632C181.054 37.632 182.006 37.872 182.886 38.352C183.766 38.816 184.438 39.432 184.902 40.2V33.24H187.11V51H184.902V48.528C184.47 49.312 183.83 49.96 182.982 50.472C182.134 50.968 181.142 51.216 180.006 51.216C178.838 51.216 177.774 50.928 176.814 50.352C175.87 49.776 175.126 48.968 174.582 47.928C174.038 46.888 173.766 45.704 173.766 44.376ZM184.902 44.4C184.902 43.408 184.702 42.544 184.302 41.808C183.902 41.072 183.358 40.512 182.67 40.128C181.998 39.728 181.254 39.528 180.438 39.528C179.622 39.528 178.878 39.72 178.206 40.104C177.534 40.488 176.998 41.048 176.598 41.784C176.198 42.52 175.998 43.384 175.998 44.376C175.998 45.384 176.198 46.264 176.598 47.016C176.998 47.752 177.534 48.32 178.206 48.72C178.878 49.104 179.622 49.296 180.438 49.296C181.254 49.296 181.998 49.104 182.67 48.72C183.358 48.32 183.902 47.752 184.302 47.016C184.702 46.264 184.902 45.392 184.902 44.4Z" fill="white"/>
<defs>
<linearGradient id="paint0_linear_38_813" x1="0" y1="115" x2="420" y2="115" gradientUnits="userSpaceOnUse">
<stop offset="0.0336538" stop-color="#E86464"/>
<stop offset="0.485577" stop-color="#609CDB"/>
<stop offset="1" stop-color="#1D93E7"/>
</linearGradient>
</defs>
</svg>
